<svg xmlns="http://www.w3.org/2000/svg" width="24" height="24" viewBox="0 0 24 24">
  <path d="M16.462 8.293c-.337.021-1.254.525-2.108.525-.867 0-1.764-.498-2.108-.506-.863-.029-2.233.787-2.233 2.805 0 3.047 2.69 4.146 2.691 4.146 0 .002-.635 1.822-2.092 1.822-1.458 0-1.042-.769-2.733-.778h-.124c-.253 0-.503.052-.729.155-.315.144-.481.361-.482.641.001.371.502.715 1.019.94.498.217 1.03.309 1.56.309 2.978 0 4.845-2.162 5.112-2.52.539-.51 2.162-1.938 2.162-4.238 0-.146-.009-.291-.025-.434-.148-1.289-1.221-2.462-2.318-2.803-.099-.03-.197-.056-.295-.076-.152-.03-.308-.043-.466-.039m-2.195-5.293c-3.009.01-4.312 1.559-4.312 1.559s.775 1.474 2.004 1.501c1.796-.49 2.308-1.501 2.308-1.501s-1.198-1.571-4-1.559"/>
</svg>
