<?xml version="1.0" encoding="UTF-8"?>
<svg width="120px" height="40px" viewBox="0 0 120 40" version="1.1" xmlns="http://www.w3.org/2000/svg" xmlns:xlink="http://www.w3.org/1999/xlink">
  <title>M-Mart+ Logo</title>
  <g stroke="none" stroke-width="1" fill="none" fill-rule="evenodd">
    <g fill="#FFFFFF">
      <path d="M10,30 L15,10 L20,10 L25,30 L20,30 L19,25 L16,25 L15,30 L10,30 Z M16.5,20 L18.5,20 L17.5,15 L16.5,20 Z"/>
      <rect x="26" y="10" width="4" height="20"/>
      <path d="M32,30 L32,10 L36,10 L40,20 L40,10 L44,10 L44,30 L40,30 L36,20 L36,30 L32,30 Z"/>
      <path d="M46,30 L46,10 L50,10 L54,20 L58,10 L62,10 L62,30 L58,30 L58,18 L54,25 L50,18 L50,30 L46,30 Z"/>
      <path d="M63,20 C63,17.8 63.9,15.9 65.7,14.1 C67.5,12.3 69.7,11.4 72.3,11.4 C74.9,11.4 77.1,12.3 78.9,14.1 C80.7,15.9 81.6,17.8 81.6,20 C81.6,22.2 80.7,24.1 78.9,25.9 C77.1,27.7 74.9,28.6 72.3,28.6 C69.7,28.6 67.5,27.7 65.7,25.9 C63.9,24.1 63,22.2 63,20 Z M67.8,20 C67.8,21.3 68.2,22.4 69,23.3 C69.8,24.2 71,24.6 72.4,24.6 C73.8,24.6 74.9,24.2 75.8,23.3 C76.7,22.4 77.1,21.3 77.1,20 C77.1,18.8 76.7,17.7 75.9,16.7 C75.1,15.7 73.9,15.2 72.5,15.2 C71.1,15.2 69.9,15.7 69.1,16.7 C68.3,17.7 67.9,18.7 67.9,20 L67.8,20 Z"/>
      <path d="M83,10 L87,10 L87,25.5 L94,25.5 L94,30 L83,30 L83,10 Z"/>
      <path d="M95,25 L99,25 L99,30 L95,30 L95,25 Z"/>
      <path d="M99,10 L105,10 L108,18 L111,10 L117,10 L109,30 L107,30 L99,10 Z"/>
    </g>
    <path d="M30,25 L35,25 L30,30 L25,30 L30,25 Z" fill="#FFD700"></path>
  </g>
</svg>
